<?xml version="1.0" encoding="utf-8"?>
<!-- Generator: Adobe Illustrator 21.0.2, SVG Export Plug-In . SVG Version: 6.00 Build 0)  -->
<svg version="1.1" id="Layer_1" xmlns="http://www.w3.org/2000/svg" xmlns:xlink="http://www.w3.org/1999/xlink" x="0px" y="0px"
	 viewBox="0 0 618 618" style="enable-background:new 0 0 618 618;" xml:space="preserve">
<style type="text/css">
	.st0{fill:none;stroke:#000000;stroke-width:20;stroke-miterlimit:10;}
	.st1{fill:none;stroke:#000000;stroke-width:25;stroke-miterlimit:10;}
	.st2{font-family:'Roboto-BlackItalic';}
	.st3{font-size:124.3973px;}
	.st4{letter-spacing:2;}
	.st5{letter-spacing:1;}
	.st6{letter-spacing:4;}
</style>
<g>
	<g>
		<line class="st0" x1="177.3" y1="459" x2="177.3" y2="158.9"/>
		<path class="st1" d="M583.9,158.9H34.1v89.7c33.9,0,61.3,27.5,61.3,61.3S68,371.3,34.1,371.3c0,0,0,87.8,0,87.8s549.8,0,549.8,0
			v-89.7c-33.9,0-61.3-27.5-61.3-61.3s27.5-61.3,61.3-61.3C583.9,246.7,583.9,158.9,583.9,158.9z"/>
	</g>
	<text transform="matrix(1 0 0 1 222.5439 290.996)"><tspan x="0" y="0" class="st2 st3 st4">t</tspan><tspan x="44.3" y="0" class="st2 st3">h</tspan><tspan x="113" y="0" class="st2 st3 st4">e</tspan><tspan x="0" y="108.7" class="st2 st3">h</tspan><tspan x="69.6" y="108.7" class="st2 st3 st5">a</tspan><tspan x="135.6" y="108.7" class="st2 st3">p</tspan><tspan x="205.1" y="108.7" class="st2 st3 st6">s</tspan></text>
</g>
</svg>
